@startuml
!include style.plantuml

'left to right direction

class Thing #silver
Thing -> dpv.Process: hasProcess >

package dpv {
	class Process
	class PersonalData
	class Risk
	class Technology
	class Location
	class Law
	class Justification

	Process -- Data : hasData >	
	Process -- Justification: hasJustification >
	Process -- PersonalData: hasPersonalData >
	Process -- Risk: hasRisk >
	Process -- Technology: isImplementedUsingTechnology >
	Process -- Location: hasLocation >
	Process -- Law: hasApplicableLaw >
}

package dpv.pd {
}
dpv.PersonalData <.. dpv.pd : <<extends>>

package dpv.risk {
}
dpv.Risk <.. dpv.risk : <<extends>>

package dpv.tech {
}
dpv.Technology <.. dpv.tech : <<extends>>

package dpv.justifications {
}
dpv.Justification <.. dpv.justifications : <<extends>>

package dpv.loc {
}
dpv.Location <.. dpv.loc : <<extends>>
package dpv.ai {
}
dpv.tech <.. dpv.ai : <<extends>>

package dpv.legal <<Node>> {
	dpv.Law <.. dpv.legal : <<extends>>
	package eu {
		package aiact {}
		package dga {}
		package gdpr {}
		package nis2 {}
		package rights {}
		package ehds {}
	}
	eu -[hidden]d- at
	package at {}
	at -[hidden]r- be
	package be {}
	be -[hidden]r- bg
	package bg {}
	bg -[hidden]r- cy
	package cy {}
	cy -[hidden]r- cz
	package cz {}
	cz -[hidden]r- de
	package de {}
	de -[hidden]r- dk
	package dk {}
	dk -[hidden]r- ee
	package ee {}
	ee -[hidden]d- es
	package es {}
	es -[hidden]r- fi
	package fi {}
	fi -[hidden]r- fr
	package fr {}
	fr -[hidden]r- gb
	package gb {}
	gb -[hidden]r- gr
	package gr {}
	gr -[hidden]r- hk
	package hk {}
	hk -[hidden]r- hr
	package hr {}
	hr -[hidden]r- hu
	package hu {}
	hu -[hidden]r- ie
	package ie {}
	ie -[hidden]d- in
	package in {}
	in -[hidden]r- is
	package is {}
	is -[hidden]r- it
	package it {}
	it -[hidden]r- jp
	package jp {}
	jp -[hidden]r- kr
	package kr {}
	kr -[hidden]r- li
	package li {}
	li -[hidden]r- lt
	package lt {}
	lt -[hidden]r- lu  
	package lu {}
	lu -[hidden]d- lv  
	package lv {}
	lv -[hidden]r- mo
	package mo {}
	mo -[hidden]r- mt
	package mt {}
	mt -[hidden]r- my
	package my {}
	my -[hidden]r- nl
	package nl {}
	nl -[hidden]r- no
	package no {}
	no -[hidden]r- ph
	package ph {}
	ph -[hidden]r- pl
	package pl {}
	pl -[hidden]r- pt
	package pt {}
	pt -[hidden]d- ro
	package ro {}
	ro -[hidden]r- se
	package se {}
	se -[hidden]r- sg
	package sg {}
	sg -[hidden]r- si
	package si {}
	si -[hidden]r- sk
	package sk {}
	sk -[hidden]r- th
	package th {}
	th -[hidden]r- tw
	package tw {}
	tw -[hidden]r- us
	package us {}

}

package dpv.sector <<Node>> {
	package education {}
	package finance {}
	package health {}
	package infra {}
	package law {}
	package publicservices {}
}

package dpv.standards <<Node>> {
	package p7012 {}
}

' tweak package arrangement

dpv.loc -[hidden]d- dpv.sector
dpv.sector -[hidden]d- dpv.standards
dpv.ai -[hidden]l- dpv.legal
dpv.PersonalData -[hidden]l- dpv.Justification
dpv.ai -[hidden]d- dpv.sector

@enduml
